<svg xmlns="http://www.w3.org/2000/svg" viewBox="0 0 324 102">
  <path d="M160.0,76.0 L213.0,76.0 L213.0,76.0 L214.1,76.0 L215.1,75.8 L216.2,75.6 L217.2,75.3 L218.2,75.0 L219.1,74.5 L220.1,74.0 L220.9,73.4 L221.8,72.8 L222.5,72.0 L223.3,71.3 L223.9,70.4 L224.5,69.6 L225.0,68.6 L225.5,67.7 L225.8,66.7 L226.1,65.7 L226.3,64.6 L226.5,63.6 L226.5,62.5 L226.5,61.4 L226.3,60.4 L226.1,59.3 L225.8,58.3 L225.5,57.3 L225.0,56.4 L224.5,55.4 L223.9,54.6 L223.3,53.7 L222.5,53.0 L221.8,52.2 L220.9,51.6 L220.1,51.0 L219.1,50.5 L218.2,50.0 L217.2,49.7 L216.2,49.4 L215.1,49.2 L214.1,49.0 L213.0,49.0 L80.0,49.0 L80.0,49.0 L78.7,48.9 L77.4,48.8 L76.1,48.5 L74.9,48.2 L73.7,47.7 L72.5,47.2 L71.4,46.6 L70.3,45.8 L69.3,45.0 L68.3,44.2 L67.5,43.2 L66.7,42.2 L65.9,41.1 L65.3,40.0 L64.8,38.8 L64.3,37.6 L64.0,36.4 L63.7,35.1 L63.6,33.8 L63.5,32.5 L63.6,31.2 L63.7,29.9 L64.0,28.6 L64.3,27.4 L64.8,26.2 L65.3,25.0 L65.9,23.9 L66.7,22.8 L67.5,21.8 L68.3,20.8 L69.3,20.0 L70.3,19.2 L71.4,18.4 L72.5,17.8 L73.7,17.3 L74.9,16.8 L76.1,16.5 L77.4,16.2 L78.7,16.1 L80.0,16.0 L270.0,16.0 L270.0,16.0 L273.2,16.1 L276.4,16.5 L279.6,17.0 L282.7,17.8 L285.7,18.8 L288.6,20.0 L291.4,21.5 L294.1,23.1 L296.6,24.9 L299.0,26.8 L301.2,29.0 L303.2,31.3 L305.0,33.7 L306.5,36.2 L307.9,38.8 L309.0,41.6 L309.9,44.4 L310.5,47.2 L310.9,50.1 L311.0,53.0 L310.9,55.9 L310.5,58.8 L309.9,61.6 L309.0,64.4 L307.9,67.2 L306.5,69.8 L305.0,72.3 L303.2,74.7 L301.2,77.0 L299.0,79.2 L296.6,81.1 L294.1,82.9 L291.4,84.5 L288.6,86.0 L285.7,87.2 L282.7,88.2 L279.6,89.0 L276.4,89.5 L273.2,89.9 L270.0,90.0 L23.0,90.0 L23.0,90.0 L22.6,90.0 L22.2,90.0 L21.8,89.9 L21.4,89.9 L21.0,89.8 L20.7,89.7 L20.3,89.6 L19.9,89.5 L19.5,89.4 L19.2,89.2 L18.8,89.1 L18.5,88.9 L18.1,88.7 L17.8,88.5 L17.4,88.3 L17.1,88.1 L16.8,87.9 L16.5,87.6 L16.2,87.3 L15.9,87.1 L15.7,86.8 L15.4,86.5 L15.1,86.2 L14.9,85.9 L14.7,85.6 L14.5,85.2 L14.3,84.9 L14.1,84.5 L13.9,84.2 L13.8,83.8 L13.6,83.5 L13.5,83.1 L13.4,82.7 L13.3,82.3 L13.2,82.0 L13.1,81.6 L13.1,81.2 L13.0,80.8 L13.0,80.4 L13.0,80.0 L13.0,16.0" fill="none" stroke="#393939" stroke-width="13" stroke-linecap="round" stroke-linejoin="round"/>
  <rect x="122.5" y="70.5" width="11" height="11" fill="#df5762"/>
</svg>