<svg xmlns="http://www.w3.org/2000/svg" viewBox="0 0 240 150" role="img" aria-label="O Show da Computação">
  <defs>
    <radialGradient id="osdcCoinF" cx="38%" cy="30%" r="78%">
      <stop offset="0" stop-color="#fff4c6"/>
      <stop offset="45%" stop-color="#ffd24a"/>
      <stop offset="80%" stop-color="#e0a800"/>
      <stop offset="100%" stop-color="#a9760a"/>
    </radialGradient>
  </defs>
  <g transform="translate(88 6)">
    <circle cx="32" cy="32" r="28" fill="url(#osdcCoinF)"/>
    <circle cx="32" cy="32" r="28" fill="none" stroke="#7a5900" stroke-width="1.5" opacity="0.55"/>
    <circle cx="32" cy="32" r="24" fill="none" stroke="#ffffff" stroke-width="1" opacity="0.4"/>
    <circle cx="32" cy="32" r="21" fill="none" stroke="#0b5f6e" stroke-width="1.4" stroke-dasharray="2 4" opacity="0.7"/>
    <circle cx="32" cy="11" r="1.6" fill="#0b5f6e"/><circle cx="53" cy="32" r="1.6" fill="#0b5f6e"/><circle cx="11" cy="32" r="1.6" fill="#0b5f6e"/>
    <g fill="none" stroke="#12224a" stroke-width="3.4" stroke-linecap="round" stroke-linejoin="round">
      <path d="M26 25 L19 32 L26 39"/>
      <path d="M38 25 L45 32 L38 39"/>
      <path d="M30 40 L34 24"/>
    </g>
    <path d="M47.5 12 l1.4 3.5 3.5 1.4 -3.5 1.4 -1.4 3.5 -1.4 -3.5 -3.5 -1.4 3.5 -1.4z" fill="#ffffff"/>
  </g>
  <text x="120" y="98" text-anchor="middle" font-family="'Outfit','Segoe UI',Arial,sans-serif" font-size="15" font-weight="700" letter-spacing="5" fill="#FBBF24">O SHOW DA</text>
  <text x="120" y="128" text-anchor="middle" font-family="'Outfit','Segoe UI',Arial,sans-serif" font-size="27" font-weight="800" letter-spacing="1" fill="#F4F8FF">COMPUTAÇÃO</text>
</svg>
